<svg width="189" height="37" viewBox="0 0 189 37" fill="none" xmlns="http://www.w3.org/2000/svg">
<path d="M56.7 24.9H48.3L46.2 28.6H40.9L52.5 7.3L64.1 28.6H58.8L56.7 24.9ZM54.5 21L52.4 17.3L50.3 21H54.5Z" fill="#212121"/>
<path d="M80.4 7.6V21.3C80.4 22.9 80 24.3 79.2 25.4C78.4 26.6 77.4 27.5 76 28.1C74.6 28.7 73.1 29 71.3 29C69.7 29 68.2 28.7 67 28.2C65.8 27.7 64.8 26.8 64.1 25.7C63.4 24.6 63.1 23.2 63.1 21.6V7.6H68.3V20.2C68.3 21 68.4 21.7 68.6 22.3C68.8 22.9 69.1 23.4 69.6 23.8C70.1 24.2 70.7 24.3 71.5 24.3C73 24.3 74 23.9 74.5 23C75 22.1 75.2 20.8 75.2 19.1V7.6H80.4Z" fill="#212121"/>
<path d="M86.4 12.4H82.4L81.1 7.6H95.3L96.5 12.4H91.5V28.6H86.3V12.4H86.4Z" fill="#212121"/>
<path d="M112.9 8.6C114.6 9.6 116 10.9 116.9 12.6C117.9 14.3 118.4 16.1 118.4 18.1C118.4 20.1 117.9 21.9 116.9 23.6C115.9 25.3 114.6 26.6 112.9 27.6C111.2 28.6 109.3 29.1 107.3 29.1C105.3 29.1 103.5 28.6 101.7 27.6C100 26.6 98.6 25.3 97.6 23.6C96.6 21.9 96.1 20.1 96.1 18.1C96.1 16.1 96.6 14.3 97.6 12.6C98.6 10.9 99.9 9.6 101.7 8.6C103.4 7.6 105.3 7.1 107.3 7.1C109.3 7.1 111.2 7.6 112.9 8.6ZM104.3 12.8C103.4 13.4 102.7 14.1 102.1 15.1C101.6 16.1 101.3 17.1 101.3 18.1C101.3 19.2 101.6 20.2 102.1 21.1C102.6 22.1 103.4 22.9 104.3 23.4C105.2 24 106.2 24.3 107.3 24.3C108.4 24.3 109.4 24 110.3 23.4C111.2 22.8 111.9 22.1 112.5 21.1C113 20.1 113.3 19.1 113.3 18.1C113.3 17 113 16 112.5 15.1C112 14.1 111.2 13.4 110.3 12.8C109.4 12.2 108.4 11.9 107.3 11.9C106.2 11.9 105.2 12.2 104.3 12.8Z" fill="#212121"/>
<path d="M126 12.4H118.8L117.3 7.6H134.4L124.4 23.8H133.5V28.6H116L126 12.4Z" fill="#212121"/>
<path d="M135.2 28.6V7.6H141.5C142.9 7.6 144.1 7.7 145.1 7.9C146.1 8.1 147 8.5 147.7 9C148.4 9.5 149 10.2 149.4 11.1C149.8 12 150 13.1 150 14.3C150 15.3 149.8 16.3 149.4 17.1C149 17.9 148.5 18.6 147.8 19.2C147.1 19.8 146.3 20.2 145.3 20.5C144.3 20.8 143.3 21 142.3 21H140.5V28.6H135.2ZM140.4 16.5H141.9C142.8 16.5 143.6 16.3 144.1 15.9C144.6 15.5 144.9 15 144.9 14.2C144.9 13.5 144.6 12.9 144.1 12.5C143.6 12.1 142.9 11.9 141.9 11.9H140.4V16.5Z" fill="#4158F2"/>
<path d="M150.7 28.6V7.6H156.6C158.3 7.6 159.7 7.8 161 8.3C162.3 8.7 163.2 9.4 163.9 10.4C164.6 11.4 165 12.6 165 14.1C165 15.2 164.7 16.3 164.1 17.3C163.5 18.3 162.7 19 161.7 19.4L166.9 28.6H160.9L156 19.2H155.9V28.6H150.7ZM155.9 17.9C156.8 17.9 157.5 17.8 158.1 17.6C158.7 17.4 159.1 17.1 159.4 16.6C159.7 16.1 159.9 15.6 159.9 14.8C159.9 13.7 159.6 13 158.9 12.6C158.2 12.2 157.3 12 155.9 12V17.9Z" fill="#4158F2"/>
<path d="M182.6 8.6C184.3 9.6 185.7 10.9 186.6 12.6C187.6 14.3 188.1 16.1 188.1 18.1C188.1 20.1 187.6 21.9 186.6 23.6C185.6 25.3 184.3 26.6 182.6 27.6C180.9 28.6 179 29.1 177 29.1C175 29.1 173.2 28.6 171.4 27.6C169.7 26.6 168.3 25.3 167.3 23.6C166.3 21.9 165.8 20.1 165.8 18.1C165.8 16.1 166.3 14.3 167.3 12.6C168.3 10.9 169.6 9.6 171.4 8.6C173.1 7.6 175 7.1 177 7.1C179 7.1 180.9 7.6 182.6 8.6ZM174 12.8C173.1 13.4 172.4 14.1 171.8 15.1C171.3 16.1 171 17.1 171 18.1C171 19.2 171.3 20.2 171.8 21.1C172.3 22.1 173.1 22.9 174 23.4C174.9 24 175.9 24.3 177 24.3C178.1 24.3 179.1 24 180 23.4C180.9 22.8 181.6 22.1 182.2 21.1C182.7 20.1 183 19.1 183 18.1C183 17 182.7 16 182.2 15.1C181.7 14.1 180.9 13.4 180 12.8C179.1 12.2 178.1 11.9 177 11.9C175.9 11.9 174.9 12.2 174 12.8Z" fill="#4158F2"/>
<path fill-rule="evenodd" clip-rule="evenodd" d="M33.3 18.1C33.3 16 34.5 14.2 36 13.7C35.5 11.8 34.8 10.1 33.8 8.4C32.3 9.2 30.3 8.7 28.8 7.2C27.3 5.7 26.9 3.6 27.6 2.2C26 1.2 24.2 0.5 22.3 0C21.8 1.6 20 2.7 17.9 2.7C15.8 2.7 14 1.5 13.5 0C11.7 0.6 10 1.3 8.4 2.3C9.2 3.8 8.7 5.8 7.2 7.3C5.7 8.8 3.6 9.2 2.2 8.5C1.2 10.1 0.5 11.9 0 13.8C1.6 14.3 2.7 16.1 2.7 18.2C2.7 20.3 1.5 22.1 0 22.6C0.5 24.5 1.2 26.2 2.2 27.9C3.6 27.1 5.7 27.6 7.2 29.1C8.7 30.6 9.1 32.7 8.4 34.1C10 35.1 11.8 35.8 13.7 36.3C14.2 34.7 16 33.6 18.1 33.6C20.2 33.6 22 34.8 22.5 36.3C24.4 35.8 26.1 35.1 27.8 34.1C27 32.7 27.5 30.6 29 29.1C30.5 27.6 32.6 27.2 34 27.9C35 26.3 35.7 24.5 36.2 22.6C34.4 22 33.3 20.2 33.3 18.1ZM18 29.8C11.5 29.8 6.3 24.5 6.3 18.1C6.3 11.6 11.6 6.4 18 6.4C24.5 6.4 29.7 11.7 29.7 18.1C29.7 24.6 24.5 29.8 18 29.8Z" fill="#4158F2"/>
<path fill-rule="evenodd" clip-rule="evenodd" d="M21.5 13.9L22.5 11.3L24.1 10.9C22.7 10 20.7 10.1 19.5 11.4C18.4 12.5 18.1 14.1 18.7 15.5L11.5 21.7L11.3 21.9C10.5 22.7 10.5 24 11.3 24.8C12.1 25.6 13.4 25.6 14.2 24.8L14.4 24.6L20.6 17.4C21.9 18 23.6 17.7 24.7 16.6C25.1 16.2 25.4 15.7 25.6 15.2L23.7 15.7L21.5 13.9ZM13.4 23.8C13.1 24.1 12.6 24.1 12.3 23.8C12 23.5 12 23 12.3 22.7C12.6 22.4 13.1 22.4 13.4 22.7C13.7 23 13.7 23.5 13.4 23.8Z" fill="#4158F2"/>
<path fill-rule="evenodd" clip-rule="evenodd" d="M12.3 13.6L15.8 17.1L16.8 16.2L13.2 12.6C13.1 12.4 13 12.1 12.7 11.9C12.2 11.5 12.1 11.6 10.9 10.7L10.3 11.3C11.1 12.5 11.1 12.6 11.5 13.1C11.8 13.4 12.1 13.6 12.3 13.6Z" fill="#4158F2"/>
<path fill-rule="evenodd" clip-rule="evenodd" d="M20.6 18.5L18.3 21.1L22.8 25.6C23.2 26 23.9 26 24.3 25.6L25.2 24.7C25.6 24.3 25.6 23.6 25.2 23.2L20.6 18.5ZM23.1 24.5C23 24.6 22.8 24.6 22.7 24.5L19.3 21.1C19.2 21 19.2 20.8 19.3 20.7C19.4 20.6 19.6 20.6 19.7 20.7L23.1 24.1C23.3 24.2 23.3 24.4 23.1 24.5ZM24.1 23.5C24 23.6 23.8 23.6 23.7 23.5L20.3 20.1C20.2 20 20.2 19.8 20.3 19.7C20.4 19.6 20.6 19.6 20.7 19.7L24.1 23.1C24.2 23.2 24.2 23.4 24.1 23.5Z" fill="#4158F2"/>
</svg>
