<svg width="189" height="37" viewBox="0 0 189 37" fill="none" xmlns="http://www.w3.org/2000/svg">
<path d="M56.7 24.9001H48.3L46.2 28.6001H40.9L52.5 7.3001L64.1 28.6001H58.8L56.7 24.9001ZM54.5 21.0001L52.4 17.3001L50.3 21.0001H54.5Z" fill="white"/>
<path d="M80.4 7.6001V21.3001C80.4 22.9001 80 24.3001 79.2 25.4001C78.4 26.6001 77.4 27.5001 76 28.1001C74.6 28.7001 73.1 29.0001 71.3 29.0001C69.7 29.0001 68.2 28.7001 67 28.2001C65.8 27.7001 64.8 26.8001 64.1 25.7001C63.4 24.6001 63.1 23.2001 63.1 21.6001V7.6001H68.3V20.2001C68.3 21.0001 68.4 21.7001 68.6 22.3001C68.8 22.9001 69.1 23.4001 69.6 23.8001C70.1 24.2001 70.7 24.3001 71.5 24.3001C73 24.3001 74 23.9001 74.5 23.0001C75 22.1001 75.2 20.8001 75.2 19.1001V7.6001H80.4Z" fill="white"/>
<path d="M86.4 12.4001H82.4L81.1 7.6001H95.3L96.5 12.4001H91.5V28.6001H86.3V12.4001H86.4Z" fill="white"/>
<path d="M112.9 8.6001C114.6 9.6001 116 10.9001 116.9 12.6001C117.9 14.3001 118.4 16.1001 118.4 18.1001C118.4 20.1001 117.9 21.9001 116.9 23.6001C115.9 25.3001 114.6 26.6001 112.9 27.6001C111.2 28.6001 109.3 29.1001 107.3 29.1001C105.3 29.1001 103.5 28.6001 101.7 27.6001C100 26.6001 98.6 25.3001 97.6 23.6001C96.6 21.9001 96.1 20.1001 96.1 18.1001C96.1 16.1001 96.6 14.3001 97.6 12.6001C98.6 10.9001 99.9 9.6001 101.7 8.6001C103.4 7.6001 105.3 7.1001 107.3 7.1001C109.3 7.1001 111.2 7.6001 112.9 8.6001ZM104.3 12.8001C103.4 13.4001 102.7 14.1001 102.1 15.1001C101.6 16.1001 101.3 17.1001 101.3 18.1001C101.3 19.2001 101.6 20.2001 102.1 21.1001C102.6 22.1001 103.4 22.9001 104.3 23.4001C105.2 24.0001 106.2 24.3001 107.3 24.3001C108.4 24.3001 109.4 24.0001 110.3 23.4001C111.2 22.8001 111.9 22.1001 112.5 21.1001C113 20.1001 113.3 19.1001 113.3 18.1001C113.3 17.0001 113 16.0001 112.5 15.1001C112 14.1001 111.2 13.4001 110.3 12.8001C109.4 12.2001 108.4 11.9001 107.3 11.9001C106.2 11.9001 105.2 12.2001 104.3 12.8001Z" fill="white"/>
<path d="M126 12.4001H118.8L117.3 7.6001H134.4L124.4 23.8001H133.5V28.6001H116L126 12.4001Z" fill="white"/>
<path d="M135.2 28.6001V7.6001H141.5C142.9 7.6001 144.1 7.7001 145.1 7.9001C146.1 8.1001 147 8.5001 147.7 9.0001C148.4 9.5001 149 10.2001 149.4 11.1001C149.8 12.0001 150 13.1001 150 14.3001C150 15.3001 149.8 16.3001 149.4 17.1001C149 17.9001 148.5 18.6001 147.8 19.2001C147.1 19.8001 146.3 20.2001 145.3 20.5001C144.3 20.8001 143.3 21.0001 142.3 21.0001H140.5V28.6001H135.2ZM140.4 16.5001H141.9C142.8 16.5001 143.6 16.3001 144.1 15.9001C144.6 15.5001 144.9 15.0001 144.9 14.2001C144.9 13.5001 144.6 12.9001 144.1 12.5001C143.6 12.1001 142.9 11.9001 141.9 11.9001H140.4V16.5001Z" fill="#4158F2"/>
<path d="M150.7 28.6001V7.6001H156.6C158.3 7.6001 159.7 7.8001 161 8.3001C162.3 8.7001 163.2 9.4001 163.9 10.4001C164.6 11.4001 165 12.6001 165 14.1001C165 15.2001 164.7 16.3001 164.1 17.3001C163.5 18.3001 162.7 19.0001 161.7 19.4001L166.9 28.6001H160.9L156 19.2001H155.9V28.6001H150.7ZM155.9 17.9001C156.8 17.9001 157.5 17.8001 158.1 17.6001C158.7 17.4001 159.1 17.1001 159.4 16.6001C159.7 16.1001 159.9 15.6001 159.9 14.8001C159.9 13.7001 159.6 13.0001 158.9 12.6001C158.2 12.2001 157.3 12.0001 155.9 12.0001V17.9001Z" fill="#4158F2"/>
<path d="M182.6 8.6001C184.3 9.6001 185.7 10.9001 186.6 12.6001C187.6 14.3001 188.1 16.1001 188.1 18.1001C188.1 20.1001 187.6 21.9001 186.6 23.6001C185.6 25.3001 184.3 26.6001 182.6 27.6001C180.9 28.6001 179 29.1001 177 29.1001C175 29.1001 173.2 28.6001 171.4 27.6001C169.7 26.6001 168.3 25.3001 167.3 23.6001C166.3 21.9001 165.8 20.1001 165.8 18.1001C165.8 16.1001 166.3 14.3001 167.3 12.6001C168.3 10.9001 169.6 9.6001 171.4 8.6001C173.1 7.6001 175 7.1001 177 7.1001C179 7.1001 180.9 7.6001 182.6 8.6001ZM174 12.8001C173.1 13.4001 172.4 14.1001 171.8 15.1001C171.3 16.1001 171 17.1001 171 18.1001C171 19.2001 171.3 20.2001 171.8 21.1001C172.3 22.1001 173.1 22.9001 174 23.4001C174.9 24.0001 175.9 24.3001 177 24.3001C178.1 24.3001 179.1 24.0001 180 23.4001C180.9 22.8001 181.6 22.1001 182.2 21.1001C182.7 20.1001 183 19.1001 183 18.1001C183 17.0001 182.7 16.0001 182.2 15.1001C181.7 14.1001 180.9 13.4001 180 12.8001C179.1 12.2001 178.1 11.9001 177 11.9001C175.9 11.9001 174.9 12.2001 174 12.8001Z" fill="#4158F2"/>
<path fill-rule="evenodd" clip-rule="evenodd" d="M33.3 18.1C33.3 16 34.5 14.2 36 13.7C35.5 11.8 34.8 10.1 33.8 8.4C32.3 9.2 30.3 8.7 28.8 7.2C27.3 5.7 26.9 3.6 27.6 2.2C26 1.2 24.2 0.5 22.3 0C21.8 1.6 20 2.7 17.9 2.7C15.8 2.7 14 1.5 13.5 0C11.7 0.6 10 1.3 8.4 2.3C9.2 3.8 8.7 5.8 7.2 7.3C5.7 8.8 3.6 9.2 2.2 8.5C1.2 10.1 0.5 11.9 0 13.8C1.6 14.3 2.7 16.1 2.7 18.2C2.7 20.3 1.5 22.1 0 22.6C0.5 24.5 1.2 26.2 2.2 27.9C3.6 27.1 5.7 27.6 7.2 29.1C8.7 30.6 9.1 32.7 8.4 34.1C10 35.1 11.8 35.8 13.7 36.3C14.2 34.7 16 33.6 18.1 33.6C20.2 33.6 22 34.8 22.5 36.3C24.4 35.8 26.1 35.1 27.8 34.1C27 32.7 27.5 30.6 29 29.1C30.5 27.6 32.6 27.2 34 27.9C35 26.3 35.7 24.5 36.2 22.6C34.4 22 33.3 20.2 33.3 18.1ZM18 29.8C11.5 29.8 6.3 24.5 6.3 18.1C6.3 11.6 11.6 6.4 18 6.4C24.5 6.4 29.7 11.7 29.7 18.1C29.7 24.6 24.5 29.8 18 29.8Z" fill="#4158F2"/>
<path fill-rule="evenodd" clip-rule="evenodd" d="M21.5 13.9L22.5 11.3L24.1 10.9C22.7 10 20.7 10.1 19.5 11.4C18.4 12.5 18.1 14.1 18.7 15.5L11.5 21.7L11.3 21.9C10.5 22.7 10.5 24 11.3 24.8C12.1 25.6 13.4 25.6 14.2 24.8L14.4 24.6L20.6 17.4C21.9 18 23.6 17.7 24.7 16.6C25.1 16.2 25.4 15.7 25.6 15.2L23.7 15.7L21.5 13.9ZM13.4 23.8C13.1 24.1 12.6 24.1 12.3 23.8C12 23.5 12 23 12.3 22.7C12.6 22.4 13.1 22.4 13.4 22.7C13.7 23 13.7 23.5 13.4 23.8Z" fill="#4158F2"/>
<path fill-rule="evenodd" clip-rule="evenodd" d="M12.3 13.6L15.8 17.1L16.8 16.2L13.2 12.6C13.1 12.4 13 12.1 12.7 11.9C12.2 11.5 12.1 11.6 10.9 10.7L10.3 11.3C11.1 12.5 11.1 12.6 11.5 13.1C11.8 13.4 12.1 13.6 12.3 13.6Z" fill="#4158F2"/>
<path fill-rule="evenodd" clip-rule="evenodd" d="M20.6 18.5L18.3 21.1L22.8 25.6C23.2 26 23.9 26 24.3 25.6L25.2 24.7C25.6 24.3 25.6 23.6 25.2 23.2L20.6 18.5ZM23.1 24.5C23 24.6 22.8 24.6 22.7 24.5L19.3 21.1C19.2 21 19.2 20.8 19.3 20.7C19.4 20.6 19.6 20.6 19.7 20.7L23.1 24.1C23.3 24.2 23.3 24.4 23.1 24.5ZM24.1 23.5C24 23.6 23.8 23.6 23.7 23.5L20.3 20.1C20.2 20 20.2 19.8 20.3 19.7C20.4 19.6 20.6 19.6 20.7 19.7L24.1 23.1C24.2 23.2 24.2 23.4 24.1 23.5Z" fill="#4158F2"/>
</svg>
