<svg xmlns="http://www.w3.org/2000/svg" width="32" height="40" viewBox="0 0 32 40" fill="none"><path d="M5.92139 40H26.0084C29.2593 40 31.9301 37.678 31.9301 34.7753V34.659L29.6081 8.76658C29.5502 8.24418 29.1436 7.83761 28.6212 7.83761H23.8026C23.8026 3.54145 20.2613 0 15.965 0C11.6688 0 8.12742 3.4835 8.12742 7.83761H3.30887C2.78647 7.83761 2.3799 8.24419 2.32199 8.76658L4.60406e-08 34.659V34.7753C-0.000404887 37.6776 2.67042 40 5.92139 40ZM15.9648 2.03213C19.1579 2.03213 21.7703 4.64449 21.7703 7.83761H10.1593C10.1593 4.64491 12.7717 2.03213 15.9648 2.03213ZM4.23769 9.86974H8.18522V13.3532C8.18522 13.8756 8.64971 14.3401 9.1721 14.3401C9.6945 14.3401 10.159 13.8756 10.159 13.3532V9.86974H21.828V13.3532C21.828 13.8756 22.2925 14.3401 22.8149 14.3401C23.3373 14.3401 23.8018 13.8756 23.8018 13.3532V9.86974H27.7493L29.9555 34.8333C29.9555 36.5751 28.1559 38.0264 26.008 38.0264H5.92097C3.77305 38.0264 2.0313 36.5751 1.97345 34.8333L4.23769 9.86974Z" fill="#CCCCCC"></path><path d="M9.52086 29.7244L21.0738 18.1715C21.4804 17.7649 22.1186 17.7649 22.4672 18.1715C22.8738 18.5781 22.8738 19.2163 22.4672 19.5649L10.9143 31.1178C10.7401 31.292 10.4498 31.4082 10.2177 31.4082C9.9857 31.4082 9.69535 31.292 9.52121 31.1178C9.11463 30.7113 9.11468 30.0726 9.52086 29.7244ZM20.3191 25.0221C19.3901 25.0221 18.5195 25.3703 17.8808 26.009C17.2421 26.6476 16.8939 27.5183 16.8939 28.4473C16.8939 29.3762 17.2421 30.2469 17.8808 30.8856C18.5194 31.5242 19.3901 31.8725 20.3191 31.8725C21.248 31.8725 22.1187 31.5242 22.7574 30.8856C23.396 30.2469 23.7442 29.3762 23.7442 28.4473C23.7442 27.5183 23.396 26.6477 22.7574 26.009C22.0608 25.3703 21.1898 25.0221 20.3191 25.0221ZM21.3059 29.4924C21.0156 29.7828 20.6673 29.899 20.3191 29.899C19.9125 29.899 19.5642 29.7249 19.3322 29.4924C19.0418 29.2021 18.9256 28.8538 18.9256 28.5055C18.9256 28.0989 19.0997 27.7507 19.3322 27.5186C19.6225 27.2283 19.9708 27.1121 20.3191 27.1121C20.7256 27.1121 21.0739 27.2862 21.3059 27.5186C21.5963 27.809 21.7125 28.1573 21.7125 28.5055C21.7125 28.8538 21.5963 29.2021 21.3059 29.4924ZM9.23053 23.2803C9.86916 23.919 10.7981 24.2672 11.6688 24.2672C12.5395 24.2672 13.4106 23.9189 14.1071 23.2803C15.4423 21.9452 15.4423 19.7968 14.1071 18.4618C12.772 17.1267 10.6236 17.1266 9.28859 18.4618C7.89548 19.739 7.89533 21.9453 9.23053 23.2803ZM10.624 19.8552C11.2047 19.2745 12.0753 19.2745 12.6561 19.8552C13.2368 20.4359 13.2368 21.3066 12.6561 21.8873C12.0754 22.468 11.2047 22.468 10.624 21.8873C10.0432 21.3066 10.0432 20.3777 10.624 19.8552Z" fill="#4158F2"></path></svg>