<svg xmlns="http://www.w3.org/2000/svg" width="58" height="41" viewBox="0 0 58 41" fill="none"><path fill-rule="evenodd" clip-rule="evenodd" d="M14.9213 23.4641L1.17177 23.4285C0.523953 23.4267 0 22.9029 0 22.2569V1.1716C0 0.52456 0.526047 0 1.17494 0H25.8447C26.4936 0 27.0196 0.524551 27.0196 1.1716V21.0857C27.0196 32.0842 18.0783 40.9998 7.04876 40.9998C6.39987 40.9998 5.87418 40.4753 5.87418 39.8282V30.4572C5.87418 29.8101 6.39987 29.2856 7.04876 29.2856C10.7328 29.2856 13.8944 26.8559 14.9214 23.4643L14.9213 23.4641ZM24.6697 2.34271H2.34898V21.0884L16.3713 21.1251C17.0786 21.1269 17.6241 21.7467 17.5334 22.4463C16.9076 27.2838 13.0242 31.0326 8.2227 31.5634V38.6184C17.4066 38.0155 24.6692 30.3961 24.6692 21.0854L24.6697 2.34271ZM38.0287 29.2855C41.7127 29.2855 44.8743 26.8559 45.9017 23.4643L32.1521 23.4287C31.5047 23.4269 30.9804 22.903 30.9804 22.257V1.17179C30.9804 0.524742 31.5064 0.000180634 32.1553 0.000180634H56.8251C57.4739 0.000180634 58 0.524733 58 1.17179V21.0859C58 32.0844 49.0586 41 38.0291 41C37.3802 41 36.8545 40.4755 36.8545 39.8284V30.4574C36.8545 29.8103 37.3802 29.2858 38.0291 29.2858L38.0287 29.2855ZM55.6506 2.34271H33.3298V21.0884L47.3521 21.1251C48.0594 21.1269 48.6049 21.7467 48.5143 22.4463C47.8884 27.2838 44.005 31.0326 39.2035 31.5634V38.6184C48.3874 38.0155 55.65 30.3961 55.65 21.0854L55.6506 2.34271Z" fill="#E6E6E6"></path></svg>